<svg version="1.1" id="Layer_1" xmlns="http://www.w3.org/2000/svg" xmlns:xlink="http://www.w3.org/1999/xlink" x="0px" y="0px"
	 width="100%" viewBox="0 0 700 700" enable-background="new 0 0 700 700" xml:space="preserve">
<path fill="#FFFFFF" opacity="1.000000" stroke="none" 
	d="
M481.000000,701.000000 
	C320.666656,701.000000 160.833328,701.000000 1.000000,701.000000 
	C1.000000,467.666656 1.000000,234.333328 1.000000,1.000000 
	C234.333328,1.000000 467.666656,1.000000 701.000000,1.000000 
	C701.000000,234.333328 701.000000,467.666656 701.000000,701.000000 
	C627.833313,701.000000 554.666687,701.000000 481.000000,701.000000 
M504.500000,584.189087 
	C513.802368,583.772522 523.260620,584.282288 532.375183,582.749390 
	C552.236938,579.408813 568.227356,569.252075 578.277588,551.516663 
	C590.620911,529.734863 588.182495,508.463867 574.220520,488.120697 
	C533.228333,428.393372 492.311340,368.614380 451.245270,308.937897 
	C439.054230,291.222015 433.048035,271.779602 433.175049,250.306534 
	C433.356445,219.644821 433.375183,188.982147 433.462463,158.319885 
	C433.467072,156.698090 433.463074,155.076279 433.463074,152.908844 
	C446.550873,152.908844 459.131775,152.908844 471.843140,152.908844 
	C471.843140,140.996048 471.843140,129.635712 471.843140,118.360352 
	C391.919586,118.360352 312.375214,118.360352 232.856155,118.360352 
	C232.856155,129.981430 232.856155,141.235138 232.856155,152.996826 
	C245.807129,152.996826 258.397400,152.996826 271.349518,152.996826 
	C271.349518,155.314438 271.351471,157.120316 271.349243,158.926193 
	C271.312195,188.922638 270.898499,218.924866 271.359375,248.913651 
	C271.710938,271.788544 265.028442,291.929199 252.032776,310.628662 
	C210.976334,369.704895 170.270828,429.025177 129.457474,488.270233 
	C111.908188,513.744934 114.331444,543.150574 136.141190,564.590332 
	C150.306030,578.514832 167.903320,584.019592 187.537277,584.022522 
	C292.858185,584.038391 398.179108,584.125549 504.500000,584.189087 
z"/>
<path fill="#0CA6DC" opacity="1.000000" stroke="none" 
	d="
M504.000000,584.188599 
	C398.179108,584.125549 292.858185,584.038391 187.537277,584.022522 
	C167.903320,584.019592 150.306030,578.514832 136.141190,564.590332 
	C114.331444,543.150574 111.908188,513.744934 129.457474,488.270233 
	C170.270828,429.025177 210.976334,369.704895 252.032776,310.628662 
	C265.028442,291.929199 271.710938,271.788544 271.359375,248.913651 
	C270.898499,218.924866 271.312195,188.922638 271.349243,158.926193 
	C271.351471,157.120316 271.349518,155.314438 271.349518,152.996826 
	C258.397400,152.996826 245.807129,152.996826 232.856155,152.996826 
	C232.856155,141.235138 232.856155,129.981430 232.856155,118.360352 
	C312.375214,118.360352 391.919586,118.360352 471.843140,118.360352 
	C471.843140,129.635712 471.843140,140.996048 471.843140,152.908844 
	C459.131775,152.908844 446.550873,152.908844 433.463074,152.908844 
	C433.463074,155.076279 433.467072,156.698090 433.462463,158.319885 
	C433.375183,188.982147 433.356445,219.644821 433.175049,250.306534 
	C433.048035,271.779602 439.054230,291.222015 451.245270,308.937897 
	C492.311340,368.614380 533.228333,428.393372 574.220520,488.120697 
	C588.182495,508.463867 590.620911,529.734863 578.277588,551.516663 
	C568.227356,569.252075 552.236938,579.408813 532.375183,582.749390 
	C523.260620,584.282288 513.802368,583.772522 504.000000,584.188599 
M194.472656,460.980591 
	C183.515228,476.890656 172.424683,492.711182 161.643951,508.740082 
	C153.532227,520.800720 156.318390,534.449402 168.103699,542.914307 
	C174.245972,547.326111 181.197830,548.208618 188.491898,548.213989 
	C273.985504,548.276794 359.479095,548.377319 444.972687,548.494202 
	C468.470001,548.526367 491.967194,548.678528 515.464478,548.708252 
	C523.974426,548.718994 532.010681,547.103882 538.637817,541.188477 
	C548.386719,532.486633 549.621399,519.576965 541.590393,507.855530 
	C500.361603,447.681091 459.146362,387.497101 417.801605,327.402313 
	C401.928436,304.330536 393.908112,278.989075 394.079590,250.953125 
	C394.268127,220.123062 394.178314,189.291275 394.209412,158.460251 
	C394.211182,156.705994 394.209686,154.951736 394.209686,153.090927 
	C366.056519,153.090927 338.631439,153.090927 310.648865,153.090927 
	C310.648865,155.124054 310.651306,156.911316 310.648499,158.698578 
	C310.601074,188.862961 310.321899,219.029266 310.570801,249.191193 
	C310.814026,278.663696 302.267303,305.057587 285.400879,329.210602 
	C254.984772,372.766876 225.041061,416.653076 194.472656,460.980591 
z"/>
<path fill="#FEFFFF" opacity="1.000000" stroke="none" 
	d="
M194.686356,460.691040 
	C225.041061,416.653076 254.984772,372.766876 285.400879,329.210602 
	C302.267303,305.057587 310.814026,278.663696 310.570801,249.191193 
	C310.321899,219.029266 310.601074,188.862961 310.648499,158.698578 
	C310.651306,156.911316 310.648865,155.124054 310.648865,153.090927 
	C338.631439,153.090927 366.056519,153.090927 394.209686,153.090927 
	C394.209686,154.951736 394.211182,156.705994 394.209412,158.460251 
	C394.178314,189.291275 394.268127,220.123062 394.079590,250.953125 
	C393.908112,278.989075 401.928436,304.330536 417.801605,327.402313 
	C459.146362,387.497101 500.361603,447.681091 541.590393,507.855530 
	C549.621399,519.576965 548.386719,532.486633 538.637817,541.188477 
	C532.010681,547.103882 523.974426,548.718994 515.464478,548.708252 
	C491.967194,548.678528 468.470001,548.526367 444.972687,548.494202 
	C359.479095,548.377319 273.985504,548.276794 188.491898,548.213989 
	C181.197830,548.208618 174.245972,547.326111 168.103699,542.914307 
	C156.318390,534.449402 153.532227,520.800720 161.643951,508.740082 
	C172.424683,492.711182 183.515228,476.890656 194.686356,460.691040 
z"/>
</svg>